<svg width="26" height="26" viewBox="0 0 26 26" fill="none" xmlns="http://www.w3.org/2000/svg">
<path d="M20.0423 21.6667H5.95898L2.70898 24.9167V6.5C2.70898 4.7125 4.17148 3.25 5.95898 3.25H20.0423C21.8298 3.25 23.2923 4.7125 23.2923 6.5V18.4167C23.2923 20.2042 21.8298 21.6667 20.0423 21.6667Z" fill="#334391"/>
<path d="M11.916 10.833H14.0827V16.7913H11.916V10.833Z" fill="white"/>
<path d="M11.916 8.12533C11.916 8.41264 12.0302 8.68819 12.2333 8.89136C12.4365 9.09452 12.712 9.20866 12.9993 9.20866C13.2867 9.20866 13.5622 9.09452 13.7654 8.89136C13.9685 8.68819 14.0827 8.41264 14.0827 8.12533C14.0827 7.83801 13.9685 7.56246 13.7654 7.35929C13.5622 7.15613 13.2867 7.04199 12.9993 7.04199C12.712 7.04199 12.4365 7.15613 12.2333 7.35929C12.0302 7.56246 11.916 7.83801 11.916 8.12533Z" fill="white"/>
</svg>
