<svg width="35" height="35" viewBox="0 0 35 35" fill="none" xmlns="http://www.w3.org/2000/svg">
<path d="M5.83398 10.2083C5.83398 7.45847 5.83398 6.08354 6.68826 5.22928C7.54252 4.375 8.91746 4.375 11.6673 4.375H23.334C26.0838 4.375 27.4587 4.375 28.313 5.22928C29.1673 6.08354 29.1673 7.45847 29.1673 10.2083V21.875C29.1673 25.9998 29.1673 28.0621 27.8859 29.3436C26.6044 30.625 24.5421 30.625 20.4173 30.625H14.584C10.4592 30.625 8.3968 30.625 7.11539 29.3436C5.83398 28.0621 5.83398 25.9998 5.83398 21.875V10.2083Z" stroke="white" stroke-width="3"/>
<path d="M21.875 26.25V30.625M13.125 26.25V30.625" stroke="white" stroke-width="3" stroke-linecap="round"/>
<path d="M13.125 11.667H21.875" stroke="white" stroke-width="3" stroke-linecap="round"/>
<path d="M13.125 17.5H21.875" stroke="white" stroke-width="3" stroke-linecap="round"/>
</svg>
