<svg width="26" height="26" viewBox="0 0 26 26" fill="none" xmlns="http://www.w3.org/2000/svg">
<path d="M16.8525 15.76L16.3591 16.2795C16.3591 16.2795 15.1863 17.5142 11.985 14.1439C8.78379 10.7736 9.95659 9.53883 9.95659 9.53883L10.2673 9.2117C11.0328 8.40584 11.1049 7.11205 10.4371 6.16753L9.07103 4.23541C8.24447 3.06638 6.64729 2.91195 5.6999 3.90936L3.9995 5.69957C3.52975 6.19413 3.21495 6.83524 3.25313 7.54644C3.35079 9.36592 4.12827 13.2806 8.46664 17.8481C13.0673 22.6917 17.384 22.8842 19.1493 22.71C19.7077 22.6549 20.1932 22.3538 20.5845 21.9418L22.1235 20.3216C23.1623 19.228 22.8694 17.3531 21.5402 16.588L19.4705 15.3967C18.5978 14.8943 17.5346 15.0419 16.8525 15.76Z" fill="#334391"/>
<path d="M14.3638 2.03681C14.4355 1.59385 14.8542 1.29336 15.2972 1.36507C15.3246 1.37032 15.4129 1.38681 15.459 1.3971C15.5516 1.4177 15.6805 1.44938 15.8412 1.49622C16.1628 1.58986 16.6119 1.74414 17.151 1.99128C18.2303 2.4861 19.6666 3.35168 21.1571 4.84213C22.6475 6.33258 23.5131 7.76888 24.0078 8.84818C24.2551 9.38727 24.4093 9.83642 24.5029 10.1579C24.5497 10.3187 24.5815 10.4477 24.6021 10.5401C24.6123 10.5863 24.6199 10.6234 24.6251 10.6509L24.6314 10.6846C24.703 11.1276 24.4053 11.5637 23.9623 11.6354C23.5207 11.7069 23.1046 11.4078 23.0311 10.967C23.0288 10.9551 23.0226 10.9234 23.0159 10.8934C23.0025 10.8333 22.9794 10.7382 22.9428 10.6124C22.8695 10.3607 22.7422 9.98656 22.5307 9.52541C22.1084 8.60424 21.349 7.33221 20.008 5.99118C18.667 4.65017 17.395 3.89076 16.4738 3.46845C16.0126 3.25702 15.6386 3.1297 15.3868 3.05638C15.261 3.01973 15.1028 2.98343 15.0428 2.97007C14.6019 2.89659 14.2923 2.47851 14.3638 2.03681Z" fill="#334391"/>
<path fill-rule="evenodd" clip-rule="evenodd" d="M14.6096 5.7731C14.7329 5.34163 15.1826 5.09179 15.614 5.21506L15.3909 5.99631C15.614 5.21506 15.614 5.21506 15.614 5.21506L15.6157 5.21552L15.6173 5.216L15.6209 5.21705L15.6293 5.21956L15.6508 5.22623C15.667 5.23145 15.6875 5.23826 15.7118 5.24689C15.7604 5.26416 15.8248 5.28871 15.9036 5.32251C16.0615 5.39015 16.277 5.49461 16.542 5.65138C17.0722 5.9652 17.7961 6.48647 18.6465 7.33686C19.4969 8.18725 20.0181 8.91111 20.332 9.44137C20.4887 9.70626 20.5932 9.92191 20.6609 10.0797C20.6947 10.1586 20.7193 10.2229 20.7365 10.2716C20.7451 10.2959 20.7519 10.3163 20.7572 10.3326L20.7638 10.3541L20.7663 10.3625L20.7674 10.3661L20.7678 10.3677C20.7678 10.3677 20.7683 10.3693 19.987 10.5925L20.7683 10.3693C20.8916 10.8008 20.6417 11.2504 20.2103 11.3737C19.7825 11.4959 19.3367 11.2514 19.209 10.8267L19.205 10.815C19.1992 10.7987 19.1873 10.7667 19.1673 10.7199C19.1272 10.6263 19.0545 10.4733 18.9336 10.269C18.692 9.86088 18.2558 9.2442 17.4974 8.48591C16.7392 7.72763 16.1225 7.29137 15.7144 7.04982C15.51 6.9289 15.3571 6.8562 15.2635 6.81612C15.2167 6.79607 15.1846 6.78411 15.1684 6.77833L15.1567 6.77434C14.732 6.64663 14.4874 6.2009 14.6096 5.7731Z" fill="#334391"/>
</svg>
