<svg width="20" height="20" viewBox="0 0 20 20" fill="none" xmlns="http://www.w3.org/2000/svg">
<path d="M9.16667 15.8337H5.16667C4.23324 15.8337 3.76653 15.8337 3.41002 15.652C3.09641 15.4922 2.84144 15.2372 2.68166 14.9237C2.5 14.5672 2.5 14.1004 2.5 13.167V6.83366C2.5 5.90024 2.5 5.43353 2.68166 5.07701C2.84144 4.7634 3.09641 4.50843 3.41002 4.34865C3.76653 4.16699 4.23325 4.16699 5.16667 4.16699H14.8333C15.7667 4.16699 16.2335 4.16699 16.59 4.34865C16.9036 4.50843 17.1586 4.7634 17.3183 5.07701C17.5 5.43353 17.5 5.90024 17.5 6.83366V10.0003M2.5 7.50033H17.5M15 17.5003V12.5003M17.5 15.001L12.5 15.0003" stroke="#334391" stroke-width="2" stroke-linecap="round" stroke-linejoin="round"/>
</svg>
