<svg width="25" height="25" viewBox="0 0 25 25" fill="none" xmlns="http://www.w3.org/2000/svg">
<path d="M3.125 17.7083H7.29167M5.20833 19.7917V15.625" stroke="white" stroke-width="2" stroke-linecap="round" stroke-linejoin="round"/>
<path d="M9.375 21.875H20.8333C21.1096 21.875 21.3746 21.7653 21.5699 21.5699C21.7653 21.3746 21.875 21.1096 21.875 20.8333C21.875 19.452 21.3263 18.1272 20.3495 17.1505C19.3728 16.1737 18.048 15.625 16.6667 15.625H11.4583" stroke="white" stroke-width="2" stroke-linecap="round" stroke-linejoin="round"/>
<path d="M13.5417 11.4583C15.8429 11.4583 17.7083 9.59285 17.7083 7.29167C17.7083 4.99048 15.8429 3.125 13.5417 3.125C11.2405 3.125 9.375 4.99048 9.375 7.29167C9.375 9.59285 11.2405 11.4583 13.5417 11.4583Z" stroke="white" stroke-width="2" stroke-linecap="round" stroke-linejoin="round"/>
</svg>
