<svg width="12" height="12" viewBox="0 0 12 12" fill="none" xmlns="http://www.w3.org/2000/svg">
<g clip-path="url(#clip0_194_2052)">
<path d="M4.125 2.25002V1.12427C4.125 1.02481 4.16451 0.929429 4.23484 0.859103C4.30516 0.788776 4.40054 0.749268 4.5 0.749268H7.5C7.59946 0.749268 7.69484 0.788776 7.76517 0.859103C7.83549 0.929429 7.875 1.02481 7.875 1.12427V2.25002H10.875C10.9745 2.25002 11.0698 2.28953 11.1402 2.35985C11.2105 2.43018 11.25 2.52556 11.25 2.62502C11.25 2.72447 11.2105 2.81986 11.1402 2.89018C11.0698 2.96051 10.9745 3.00002 10.875 3.00002H1.125C1.02554 3.00002 0.930161 2.96051 0.859835 2.89018C0.789509 2.81986 0.75 2.72447 0.75 2.62502C0.75 2.52556 0.789509 2.43018 0.859835 2.35985C0.930161 2.28953 1.02554 2.25002 1.125 2.25002H4.125ZM4.875 2.25002H7.125V1.50002H4.875V2.25002ZM2.25 11.25C2.15054 11.25 2.05516 11.2105 1.98484 11.1402C1.91451 11.0699 1.875 10.9745 1.875 10.875V3.00002H10.125V10.875C10.125 10.9745 10.0855 11.0699 10.0152 11.1402C9.94484 11.2105 9.84946 11.25 9.75 11.25H2.25ZM4.875 9.00002C4.97446 9.00002 5.06984 8.96051 5.14016 8.89018C5.21049 8.81986 5.25 8.72447 5.25 8.62502V4.87502C5.25 4.77556 5.21049 4.68018 5.14016 4.60985C5.06984 4.53953 4.97446 4.50002 4.875 4.50002C4.77554 4.50002 4.68016 4.53953 4.60984 4.60985C4.53951 4.68018 4.5 4.77556 4.5 4.87502V8.62502C4.5 8.72447 4.53951 8.81986 4.60984 8.89018C4.68016 8.96051 4.77554 9.00002 4.875 9.00002ZM7.125 9.00002C7.22446 9.00002 7.31984 8.96051 7.39017 8.89018C7.46049 8.81986 7.5 8.72447 7.5 8.62502V4.87502C7.5 4.77556 7.46049 4.68018 7.39017 4.60985C7.31984 4.53953 7.22446 4.50002 7.125 4.50002C7.02554 4.50002 6.93016 4.53953 6.85983 4.60985C6.78951 4.68018 6.75 4.77556 6.75 4.87502V8.62502C6.75 8.72447 6.78951 8.81986 6.85983 8.89018C6.93016 8.96051 7.02554 9.00002 7.125 9.00002Z" fill="#2D5497"/>
</g>
<defs>
<clipPath id="clip0_194_2052">
<rect width="12" height="12" fill="white"/>
</clipPath>
</defs>
</svg>
