<svg width="31" height="31" viewBox="0 0 31 31" fill="none" xmlns="http://www.w3.org/2000/svg">
<path d="M9.5 15.75L13.25 19.5L22 10.75M25.75 19.5C24.5 20.75 27.3125 24.1875 25.75 25.75C24.1875 27.3125 20.75 24.5 19.5 25.75C18.25 27 17.625 29.5 15.75 29.5C13.875 29.5 13.25 27 12 25.75C10.75 24.5 7.3125 27.3125 5.75 25.75C4.1875 24.1875 7 20.75 5.75 19.5C4.5 18.25 2 17.625 2 15.75C2 13.875 4.5 13.25 5.75 12C7 10.75 4.1875 7.3125 5.75 5.75C7.3125 4.1875 10.75 7 12 5.75C13.25 4.5 13.875 2 15.75 2C17.625 2 18.25 4.5 19.5 5.75C20.75 7 24.1875 4.1875 25.75 5.75C27.3125 7.3125 24.5 10.75 25.75 12C27 13.25 29.5 13.875 29.5 15.75C29.5 17.625 27 18.25 25.75 19.5Z" stroke="white" stroke-width="3"/>
</svg>
