<svg width="26" height="26" viewBox="0 0 26 26" fill="none" xmlns="http://www.w3.org/2000/svg">
<g clip-path="url(#clip0_1736_5646)">
<path d="M6.06712 2.16699C2.73533 2.16699 0 4.90301 0 8.23311V17.7676C0 21.0977 2.73533 23.8337 6.06712 23.8337H19.9328C23.2646 23.8337 26 21.0977 26 17.7676V8.23311C26 4.90301 23.2646 2.16699 19.9328 2.16699H6.06712ZM6.06712 5.63259H19.9328C21.4023 5.63259 22.5322 6.76189 22.5322 8.23311V17.7676C22.5322 19.2388 21.4023 20.3681 19.9328 20.3681H6.06712C4.59759 20.3681 3.46769 19.2388 3.46769 17.7676V8.23311C3.46769 6.76189 4.59759 5.63259 6.06712 5.63259Z" fill="#334391"/>
<path d="M3.38435 3.90232C3.1569 3.91308 2.93381 3.96849 2.72779 4.06542C2.52178 4.16234 2.33689 4.29887 2.18367 4.4672C1.87424 4.80717 1.71262 5.25605 1.73436 5.7151C1.7561 6.17416 1.95941 6.60578 2.29958 6.91502L11.8329 15.5817C12.1521 15.8719 12.5681 16.0327 12.9996 16.0327C13.4311 16.0327 13.8471 15.8719 14.1663 15.5817L23.6996 6.91502C24.0398 6.60578 24.2431 6.17416 24.2648 5.7151C24.2866 5.25605 24.1249 4.80717 23.8155 4.4672C23.5061 4.12725 23.0742 3.92408 22.6149 3.90237C22.1555 3.88066 21.7064 4.0422 21.3662 4.35144L12.9996 11.9574L4.63296 4.35144C4.29281 4.04219 3.84368 3.88063 3.38435 3.90232Z" fill="#334391"/>
<path d="M17.8417 13.8379L15.957 15.6291L21.3512 21.2977L23.2359 19.5065L17.8417 13.8379Z" fill="#334391"/>
<path d="M8.15007 13.8457L2.75586 19.605L4.65459 21.3813L10.0488 15.622L8.15007 13.8457Z" fill="#334391"/>
</g>
<defs>
<clipPath id="clip0_1736_5646">
<rect width="26" height="26" fill="white"/>
</clipPath>
</defs>
</svg>
