<svg width="60" height="60" viewBox="0 0 60 60" fill="none" xmlns="http://www.w3.org/2000/svg">
<path fill-rule="evenodd" clip-rule="evenodd" d="M49.2677 14.2678C50.244 13.2914 50.244 11.7086 49.2677 10.7322C48.2915 9.75593 46.7085 9.75593 45.7323 10.7322L35.08 21.3845C33.5912 20.5048 31.8545 20 30 20C24.4771 20 20 24.4771 20 30C20 31.8545 20.5048 33.5912 21.3845 35.08L10.7322 45.7323C9.75592 46.7085 9.75592 48.2915 10.7322 49.2677C11.7085 50.244 13.2914 50.244 14.2678 49.2677L24.9201 38.6155C26.4087 39.4953 28.1455 40 30 40C35.5227 40 40 35.5228 40 30C40 28.1455 39.4952 26.4087 38.6155 24.9201L49.2677 14.2678ZM31.295 25.1693C30.882 25.059 30.448 25 30 25C27.2385 25 25 27.2385 25 30C25 30.448 25.059 30.882 25.1692 31.295L31.295 25.1693ZM28.705 34.8307L34.8307 28.705C34.941 29.118 35 29.552 35 30C35 32.7615 32.7615 35 30 35C29.552 35 29.118 34.941 28.705 34.8307ZM39.4127 12.0518C36.5717 10.8012 33.4187 10 30 10C22.8688 10 16.8929 13.4866 12.4953 17.2649C8.0817 21.0569 5.01892 25.344 3.65967 27.4245C2.63265 28.9963 2.63265 31.0037 3.65967 32.5755C4.8069 34.3315 7.16765 37.6592 10.5298 40.9347L14.0656 37.399C11.1387 34.5573 9.0286 31.6328 7.95005 30C9.226 28.0685 11.9458 24.329 15.7537 21.0574C19.685 17.6796 24.5393 15 30 15C31.9297 15 33.7837 15.3346 35.5482 15.9165L39.4127 12.0518ZM30 45C28.0705 45 26.2165 44.6652 24.4521 44.0835L20.5874 47.9483C23.4284 49.1988 26.5815 50 30 50C37.1312 50 43.1073 46.5135 47.505 42.7353C51.9185 38.943 54.9812 34.656 56.3405 32.5755C57.3675 31.0037 57.3675 28.9963 56.3405 27.4245C55.1932 25.6685 52.8325 22.3407 49.4702 19.0653L45.9345 22.6011C48.8615 25.4428 50.9718 28.3672 52.0503 30C50.7743 31.9315 48.0545 35.671 44.2465 38.9427C40.3153 42.3205 35.4607 45 30 45Z" fill="#7A7A7A"/>
</svg>
