<svg width="60" height="60" viewBox="0 0 60 60" fill="none" xmlns="http://www.w3.org/2000/svg">
<path fill-rule="evenodd" clip-rule="evenodd" d="M10.245 30.7261C10.044 30.4681 9.85502 30.2251 9.68702 30.0001C11.3235 27.8327 13.1323 25.8011 15.096 23.9251C19.287 19.9441 24.561 16.5001 30 16.5001C35.439 16.5001 40.71 19.9441 44.904 23.9251C46.8676 25.8012 48.6765 27.8328 50.313 30.0001C48.6756 32.1667 46.8668 34.1982 44.904 36.0751C40.71 40.0561 35.439 43.5001 30 43.5001C24.561 43.5001 19.29 40.0561 15.096 36.0751C13.3532 34.4104 11.732 32.6228 10.245 30.7261ZM56.514 28.3621L54 30.0001L56.514 31.6381L56.508 31.6471L56.499 31.6591L56.469 31.7071L56.358 31.8691C55.7566 32.7423 55.1283 33.5967 54.474 34.4311C52.8078 36.5566 50.9912 38.5598 49.038 40.4251C44.544 44.6941 37.818 49.5001 30 49.5001C22.182 49.5001 15.456 44.6941 10.962 40.4251C8.24281 37.8243 5.7906 34.958 3.64202 31.8691C3.60473 31.8153 3.56773 31.7613 3.53102 31.7071L3.50102 31.6591L3.49202 31.6471L3.48902 31.6411C3.48902 31.6381 3.48602 31.6381 6.00002 30.0001L3.48602 28.3621L3.49202 28.3531L3.50102 28.3411L3.53102 28.2931C3.69566 28.0444 3.8657 27.7993 4.04102 27.5581C6.0943 24.6873 8.41246 22.0156 10.965 19.5781C15.453 15.3001 22.182 10.4971 30 10.4971C37.818 10.4971 44.544 15.3031 49.038 19.5721C51.7573 22.1728 54.2095 25.0391 56.358 28.1281L56.469 28.2901L56.499 28.3381L56.508 28.3501L56.511 28.3561L56.514 28.3621ZM54 30.0001L56.514 28.3621L57.579 30.0001L56.514 31.6381L54 30.0001ZM3.48602 28.3621L6.00002 30.0001L3.48602 31.6381L2.42102 30.0001L3.48602 28.3621ZM27 30.0001C27 29.2044 27.3161 28.4414 27.8787 27.8788C28.4413 27.3161 29.2044 27.0001 30 27.0001C30.7957 27.0001 31.5587 27.3161 32.1213 27.8788C32.6839 28.4414 33 29.2044 33 30.0001C33 30.7957 32.6839 31.5588 32.1213 32.1214C31.5587 32.684 30.7957 33.0001 30 33.0001C29.2044 33.0001 28.4413 32.684 27.8787 32.1214C27.3161 31.5588 27 30.7957 27 30.0001ZM30 21.0001C27.6131 21.0001 25.3239 21.9483 23.6361 23.6361C21.9482 25.3239 21 27.6131 21 30.0001C21 32.387 21.9482 34.6762 23.6361 36.364C25.3239 38.0519 27.6131 39.0001 30 39.0001C32.387 39.0001 34.6762 38.0519 36.364 36.364C38.0518 34.6762 39 32.387 39 30.0001C39 27.6131 38.0518 25.3239 36.364 23.6361C34.6762 21.9483 32.387 21.0001 30 21.0001Z" fill="#2D5497"/>
</svg>
