<svg width="33" height="33" viewBox="0 0 33 33" fill="none" xmlns="http://www.w3.org/2000/svg">
<path fill-rule="evenodd" clip-rule="evenodd" d="M5.4478 3.9478C4.66675 4.72884 4.66675 5.98592 4.66675 8.50008V21.8334C4.66675 25.6046 4.66675 27.4902 5.83832 28.6618C6.69339 29.5169 7.92881 29.7479 10.0001 29.8103V25.8334C10.0001 25.097 10.597 24.5001 11.3334 24.5001C12.0698 24.5001 12.6667 25.097 12.6667 25.8334V29.8334H20.6667V25.8334C20.6667 25.097 21.2637 24.5001 22.0001 24.5001C22.7365 24.5001 23.3334 25.097 23.3334 25.8334V29.8103C25.4046 29.7479 26.6401 29.5169 27.4951 28.6618C28.6667 27.4902 28.6667 25.6046 28.6667 21.8334V8.50008C28.6667 5.98592 28.6667 4.72884 27.8857 3.9478C27.1046 3.16675 25.8475 3.16675 23.3334 3.16675H10.0001C7.48592 3.16675 6.22884 3.16675 5.4478 3.9478ZM11.3334 11.1667C10.597 11.1667 10.0001 11.7637 10.0001 12.5001C10.0001 13.2365 10.597 13.8334 11.3334 13.8334H22.0001C22.7365 13.8334 23.3334 13.2365 23.3334 12.5001C23.3334 11.7637 22.7365 11.1667 22.0001 11.1667H11.3334ZM11.3334 19.1667H22.0001C22.7365 19.1667 23.3334 18.5698 23.3334 17.8334C23.3334 17.097 22.7365 16.5001 22.0001 16.5001H11.3334C10.597 16.5001 10.0001 17.097 10.0001 17.8334C10.0001 18.5698 10.597 19.1667 11.3334 19.1667Z" fill="white"/>
</svg>
