<svg width="60" height="60" viewBox="0 0 60 60" fill="none" xmlns="http://www.w3.org/2000/svg">
<path d="M57.1429 36.7042L53.3357 34.2836C53.5898 32.8942 53.7295 31.4636 53.7295 30.0011C53.7295 28.5386 53.5907 27.1099 53.3367 25.7205L57.1429 23.2999C57.9979 22.7552 58.3663 21.5045 57.9567 20.5211L56.4726 16.9389C56.0648 15.9536 54.9201 15.3283 53.931 15.5486L49.5295 16.5274C47.8925 14.1605 45.841 12.1091 43.4742 10.472L44.4538 6.06955C44.6732 5.08048 44.0488 3.9358 43.0645 3.52892L39.4813 2.04392C38.496 1.6333 37.2445 2.0008 36.7007 2.85767L34.2801 6.66392C32.8681 6.40359 31.4353 6.2718 29.9995 6.27017C28.536 6.27017 27.1063 6.40986 25.7179 6.66298L23.2973 2.85673C22.7526 1.99986 21.5029 1.63236 20.5176 2.04111L16.9363 3.52611C15.951 3.93298 15.3248 5.07861 15.546 6.06861L16.5248 10.4702C14.158 12.1066 12.1069 14.1578 10.4704 16.5245L6.06791 15.5458C5.07885 15.3245 3.93416 15.9508 3.52635 16.9342L2.04228 20.5164C1.63353 21.5017 2.00103 22.7533 2.85603 23.297L6.66322 25.7177C6.40371 27.1301 6.27224 28.5631 6.27041 29.9992C6.27041 31.4627 6.4101 32.8914 6.66322 34.2799L2.85603 36.7005C2.0001 37.2452 1.63353 38.4958 2.04228 39.482L3.52635 43.0642C3.9351 44.0477 5.07885 44.6749 6.06791 44.4527L10.4704 43.473C12.1073 45.8396 14.1584 47.891 16.5248 49.5283L15.5451 53.9308C15.3238 54.9199 15.951 56.0645 16.9345 56.4714L20.5167 57.9564C21.5029 58.3633 22.7526 57.9977 23.2973 57.1417L25.7179 53.3355C27.1073 53.5895 28.537 53.7283 29.9995 53.7283C31.462 53.7283 32.8898 53.5895 34.2801 53.3355L36.7007 57.1417C37.2445 57.9977 38.496 58.3633 39.4804 57.9564L43.0617 56.4733C44.0488 56.0645 44.6732 54.9199 44.452 53.9308L43.4732 49.5283C45.8403 47.8915 47.8918 45.8401 49.5285 43.473L53.9301 44.4527C54.9192 44.6739 56.0638 44.0467 56.4717 43.0642L57.9557 39.482C58.3663 38.4977 57.9979 37.247 57.1429 36.7042ZM23.946 47.4217L22.0092 46.6202C18.2388 44.8014 15.1966 41.7579 13.3795 37.9867L12.5807 36.0592C11.8974 34.1124 11.5466 32.0644 11.5429 30.0011C11.5429 27.8702 11.9226 25.833 12.5863 23.928L13.3757 22.022C15.1929 18.2486 18.2361 15.203 22.0082 13.383L23.947 12.5795C25.8918 11.8973 27.9375 11.5471 29.9985 11.5436C32.1173 11.5436 34.1451 11.9186 36.0407 12.5767L37.9982 13.3877C41.7585 15.2035 44.7939 18.238 46.611 21.9977L47.4257 23.9664C48.082 25.8602 48.456 27.8842 48.456 30.0011C48.456 32.118 48.0829 34.143 47.4257 36.0367L46.611 38.0055C44.7942 41.7653 41.7587 44.7999 37.9982 46.6155L36.0407 47.4264C34.0986 48.1062 32.0562 48.4554 29.9985 48.4595C27.9372 48.4539 25.8915 48.1031 23.946 47.4217Z" fill="#2D5497"/>
<path d="M44.0625 30.001C44.0625 22.2347 37.7672 15.9385 30 15.9385C22.2347 15.9385 15.9375 22.2347 15.9375 30.001C15.9375 37.7672 22.2347 44.0635 30 44.0635C37.7672 44.0635 44.0625 37.7672 44.0625 30.001ZM22.9688 30.001C22.9688 28.1362 23.7095 26.3477 25.0282 25.0291C26.3468 23.7105 28.1352 22.9697 30 22.9697C31.8648 22.9697 33.6532 23.7105 34.9718 25.0291C36.2905 26.3477 37.0312 28.1362 37.0312 30.001C37.0312 31.8658 36.2905 33.6542 34.9718 34.9728C33.6532 36.2914 31.8648 37.0322 30 37.0322C28.1352 37.0322 26.3468 36.2914 25.0282 34.9728C23.7095 33.6542 22.9688 31.8658 22.9688 30.001Z" fill="#2D5497"/>
</svg>
