<svg width="19" height="23" viewBox="0 0 19 23" fill="none" xmlns="http://www.w3.org/2000/svg">
<path d="M17.5 9.72217C17.5 15.9444 9.5 21.2777 9.5 21.2777C9.5 21.2777 1.5 15.9444 1.5 9.72217C1.5 7.60044 2.34285 5.5656 3.84315 4.06531C5.34344 2.56502 7.37827 1.72217 9.5 1.72217C11.6217 1.72217 13.6566 2.56502 15.1569 4.06531C16.6571 5.5656 17.5 7.60044 17.5 9.72217Z" stroke="white" stroke-width="1.5" stroke-linecap="round" stroke-linejoin="round"/>
<path d="M9.50004 13.2777C10.9728 13.2777 12.1667 12.0838 12.1667 10.611C12.1667 9.13824 10.9728 7.94434 9.50004 7.94434C8.02728 7.94434 6.83337 9.13824 6.83337 10.611C6.83337 12.0838 8.02728 13.2777 9.50004 13.2777Z" stroke="white" stroke-width="1.5" stroke-linecap="round" stroke-linejoin="round"/>
</svg>
