<svg width="42" height="41" viewBox="0 0 42 41" fill="none" xmlns="http://www.w3.org/2000/svg">
<path fill-rule="evenodd" clip-rule="evenodd" d="M24.9856 1.5787C22.6175 -0.526234 19.0492 -0.526234 16.681 1.5787L0.699276 15.7848C-0.160703 16.5492 -0.238161 17.866 0.526256 18.726C1.29067 19.5858 2.60748 19.6633 3.46744 18.899L4.16669 18.2775V29.979C4.16659 31.8258 4.16651 33.4171 4.33782 34.6915C4.52142 36.0571 4.93548 37.3662 5.99728 38.4279C7.05907 39.4898 8.36813 39.9037 9.7338 40.0875C11.0081 40.2587 12.5994 40.2585 14.4462 40.2585H27.2204C29.0673 40.2585 30.6585 40.2587 31.9329 40.0875C33.2985 39.9037 34.6077 39.4898 35.6694 38.4279C36.7313 37.3662 37.1452 36.0571 37.329 34.6915C37.5002 33.4171 37.5002 31.8258 37.5 29.9792V18.2775L38.1992 18.899C39.0592 19.6633 40.376 19.5858 41.1404 18.726C41.9048 17.866 41.8275 16.5492 40.9675 15.7848L24.9856 1.5787ZM20.8333 27.7585C19.6827 27.7585 18.75 28.6912 18.75 29.8419V34.0085C18.75 35.1592 17.8173 36.0919 16.6667 36.0919C15.5161 36.0919 14.5833 35.1592 14.5833 34.0085V29.8419C14.5833 26.39 17.3815 23.5919 20.8333 23.5919C24.2852 23.5919 27.0833 26.39 27.0833 29.8419V34.0085C27.0833 35.1592 26.1506 36.0919 25 36.0919C23.8494 36.0919 22.9167 35.1592 22.9167 34.0085V29.8419C22.9167 28.6912 21.984 27.7585 20.8333 27.7585Z" fill="#334391"/>
</svg>
