<svg width="33" height="32" viewBox="0 0 33 32" fill="none" xmlns="http://www.w3.org/2000/svg">
<path d="M24.7233 19.3029C24.5402 17.785 24.3886 16.6176 24.2851 15.9267C24.0795 14.5545 22.9535 13.3855 21.4833 13.018L20.0736 12.6655C19.7165 14.2089 18.3317 15.3632 16.6813 15.3632C15.031 15.3632 13.6461 14.209 13.2891 12.6655L11.8792 13.018C10.4092 13.3856 9.28313 14.5545 9.07745 15.9267C8.97348 16.6205 8.82199 17.788 8.63926 19.3028C8.59745 19.65 8.70207 19.9854 8.93404 20.247C9.16602 20.5087 9.48645 20.6528 9.83629 20.6528H23.5265C23.8762 20.6528 24.1966 20.5088 24.4286 20.247C24.6605 19.9853 24.7651 19.65 24.7233 19.3029Z" fill="white"/>
<path d="M15.3727 10.0659C15.3358 10.6397 15.1813 11.3429 14.717 11.8988C14.7268 12.9732 15.6041 13.8442 16.6808 13.8442C17.7576 13.8442 18.6348 12.9732 18.6446 11.8988C18.1804 11.3429 18.0258 10.6397 17.9889 10.0659C17.5741 10.2178 17.1364 10.3016 16.6808 10.3016C16.2251 10.3016 15.7875 10.2178 15.3727 10.0659Z" fill="white"/>
<path d="M16.6809 8.78308C18.5258 8.78308 20.3367 6.24334 20.3367 3.65576C20.3367 1.43504 18.9017 0 16.6809 0C14.4603 0 13.0253 1.43494 13.0253 3.65576C13.0253 6.24334 14.836 8.78308 16.6809 8.78308Z" fill="white"/>
<path d="M7.82353 25.5991H1.30987C0.955179 25.5991 0.666748 25.8877 0.666748 26.2424V29.0285C0.666748 29.3832 0.955179 29.6717 1.30987 29.6717H7.82353C8.17823 29.6717 8.46666 29.3832 8.46666 29.0285V26.2424C8.46666 25.8877 8.17823 25.5991 7.82353 25.5991Z" fill="white"/>
<path d="M7.79719 21.2544C7.75053 21.2017 7.7069 21.147 7.66466 21.0913L4.67542 24.0805H6.82329L8.88745 21.9999C8.47274 21.8458 8.09682 21.5922 7.79719 21.2544Z" fill="white"/>
<path d="M32.0232 25.5991H25.5096C25.1549 25.5991 24.8665 25.8877 24.8665 26.2424V29.0285C24.8665 29.3832 25.1549 29.6717 25.5096 29.6717H32.0232C32.3779 29.6717 32.6664 29.3832 32.6664 29.0285V26.2424C32.6664 25.8877 32.3779 25.5991 32.0232 25.5991Z" fill="white"/>
<path d="M28.6575 24.0805L25.6844 21.1074C25.646 21.1575 25.6063 21.2068 25.5642 21.2543C25.2593 21.5984 24.8751 21.8549 24.4514 22.0081L26.5096 24.0805H28.6575Z" fill="white"/>
<path d="M19.9234 27.4629H13.4098C13.0551 27.4629 12.7666 27.7513 12.7666 28.106V30.8923C12.7666 31.247 13.0551 31.5354 13.4098 31.5354H19.9234C20.2781 31.5354 20.5666 31.247 20.5666 30.8923V28.106C20.5666 27.7514 20.2781 27.4629 19.9234 27.4629Z" fill="white"/>
<path d="M17.4398 22.1714H15.9211V25.9444H17.4398V22.1714Z" fill="white"/>
</svg>
