<svg width="31" height="31" viewBox="0 0 31 31" fill="none" xmlns="http://www.w3.org/2000/svg">
<g clip-path="url(#clip0_54_1590)">
<path d="M15.6667 28.625C12.1858 28.625 8.84739 27.2422 6.38597 24.7808C3.92456 22.3194 2.54175 18.981 2.54175 15.5C2.54175 12.019 3.92456 8.68064 6.38597 6.21922C8.84739 3.75781 12.1858 2.375 15.6667 2.375C19.1477 2.375 22.4861 3.75781 24.9475 6.21922C27.4089 8.68064 28.7917 12.019 28.7917 15.5C28.7917 18.981 27.4089 22.3194 24.9475 24.7808C22.4861 27.2422 19.1477 28.625 15.6667 28.625ZM15.6667 30.5C19.645 30.5 23.4603 28.9196 26.2733 26.1066C29.0864 23.2936 30.6667 19.4782 30.6667 15.5C30.6667 11.5218 29.0864 7.70644 26.2733 4.8934C23.4603 2.08035 19.645 0.5 15.6667 0.5C11.6885 0.5 7.87319 2.08035 5.06015 4.8934C2.2471 7.70644 0.666748 11.5218 0.666748 15.5C0.666748 19.4782 2.2471 23.2936 5.06015 26.1066C7.87319 28.9196 11.6885 30.5 15.6667 30.5Z" fill="white"/>
<path d="M15.6667 11.75C14.6722 11.75 13.7184 12.1451 13.0151 12.8483C12.3118 13.5516 11.9167 14.5054 11.9167 15.5C11.9167 16.4946 12.3118 17.4484 13.0151 18.1516C13.7184 18.8549 14.6722 19.25 15.6667 19.25C16.6613 19.25 17.6151 18.8549 18.3184 18.1516C19.0217 17.4484 19.4167 16.4946 19.4167 15.5C19.4167 14.5054 19.0217 13.5516 18.3184 12.8483C17.6151 12.1451 16.6613 11.75 15.6667 11.75ZM8.16675 15.5C8.16675 13.5109 8.95692 11.6032 10.3634 10.1967C11.77 8.79018 13.6776 8 15.6667 8C17.6559 8 19.5635 8.79018 20.97 10.1967C22.3766 11.6032 23.1667 13.5109 23.1667 15.5C23.1667 17.4891 22.3766 19.3968 20.97 20.8033C19.5635 22.2098 17.6559 23 15.6667 23C13.6776 23 11.77 22.2098 10.3634 20.8033C8.95692 19.3968 8.16675 17.4891 8.16675 15.5Z" fill="white"/>
<path d="M17.5417 15.5C17.5417 15.9973 17.3442 16.4742 16.9926 16.8258C16.6409 17.1775 16.164 17.375 15.6667 17.375C15.1695 17.375 14.6926 17.1775 14.3409 16.8258C13.9893 16.4742 13.7917 15.9973 13.7917 15.5C13.7917 15.0027 13.9893 14.5258 14.3409 14.1742C14.6926 13.8225 15.1695 13.625 15.6667 13.625C16.164 13.625 16.6409 13.8225 16.9926 14.1742C17.3442 14.5258 17.5417 15.0027 17.5417 15.5Z" fill="white"/>
</g>
<defs>
<clipPath id="clip0_54_1590">
<rect width="30" height="30" fill="white" transform="translate(0.666748 0.5)"/>
</clipPath>
</defs>
</svg>
