<svg width="29" height="24" viewBox="0 0 29 24" fill="none" xmlns="http://www.w3.org/2000/svg">
<path d="M19.0455 22.4545V20.1818C19.0455 18.9763 18.5666 17.8201 17.7141 16.9677C16.8617 16.1152 15.7055 15.6364 14.5 15.6364H6.54545C5.33992 15.6364 4.18377 16.1152 3.33133 16.9677C2.47889 17.8201 2 18.9763 2 20.1818V22.4545" stroke="white" stroke-width="3" stroke-linecap="round" stroke-linejoin="round"/>
<path d="M10.5227 11.0909C13.0331 11.0909 15.0682 9.05584 15.0682 6.54545C15.0682 4.03507 13.0331 2 10.5227 2C8.01236 2 5.97729 4.03507 5.97729 6.54545C5.97729 9.05584 8.01236 11.0909 10.5227 11.0909Z" stroke="white" stroke-width="3" stroke-linecap="round" stroke-linejoin="round"/>
<path d="M23.5909 7.68182V14.5" stroke="white" stroke-width="3" stroke-linecap="round" stroke-linejoin="round"/>
<path d="M26.9999 11.0909H20.1818" stroke="white" stroke-width="3" stroke-linecap="round" stroke-linejoin="round"/>
</svg>
