<svg width="21" height="30" viewBox="0 0 21 30" fill="none" xmlns="http://www.w3.org/2000/svg">
<path d="M10.4998 1.64282C9.53364 1.64282 8.60707 2.02662 7.9239 2.70979C7.24073 3.39296 6.85693 4.31953 6.85693 5.28568V15C6.85693 15.9661 7.24073 16.8927 7.9239 17.5759C8.60707 18.259 9.53364 18.6428 10.4998 18.6428C11.4659 18.6428 12.3925 18.259 13.0757 17.5759C13.7588 16.8927 14.1426 15.9661 14.1426 15V5.28568C14.1426 4.31953 13.7588 3.39296 13.0757 2.70979C12.3925 2.02662 11.4659 1.64282 10.4998 1.64282Z" stroke="white" stroke-width="3" stroke-linecap="round" stroke-linejoin="round"/>
<path d="M19 12.5714V15C19 17.2543 18.1045 19.4163 16.5104 21.0104C14.9163 22.6044 12.7543 23.5 10.5 23.5C8.24566 23.5 6.08365 22.6044 4.48959 21.0104C2.89553 19.4163 2 17.2543 2 15V12.5714" stroke="white" stroke-width="3" stroke-linecap="round" stroke-linejoin="round"/>
<path d="M10.5 23.4999V28.357" stroke="white" stroke-width="3" stroke-linecap="round" stroke-linejoin="round"/>
<path d="M5.64307 28.3572H15.3574" stroke="white" stroke-width="3" stroke-linecap="round" stroke-linejoin="round"/>
</svg>
