<svg width="30" height="30" viewBox="0 0 30 30" fill="none" xmlns="http://www.w3.org/2000/svg">
<path d="M15 27.5C8.09625 27.5 2.5 21.9037 2.5 15C2.5 8.09625 8.09625 2.5 15 2.5C21.9037 2.5 27.5 8.09625 27.5 15C27.5 21.9037 21.9037 27.5 15 27.5ZM9.9 11.5425V11.67C9.9 11.8358 9.96585 11.9947 10.0831 12.1119C10.2003 12.2292 10.3592 12.295 10.525 12.295H11.7712C11.8532 12.295 11.9343 12.2789 12.0099 12.2475C12.0856 12.2162 12.1544 12.1702 12.2123 12.1123C12.2702 12.0544 12.3162 11.9856 12.3475 11.9099C12.3789 11.8343 12.395 11.7532 12.395 11.6712C12.395 10.0588 13.6425 9.1975 15.32 9.1975C16.955 9.1975 18.03 10.0587 18.03 11.285C18.03 12.445 17.4275 12.9837 15.9225 13.6725L15.4925 13.865C14.2238 14.425 13.75 15.2625 13.75 16.7262V16.875C13.75 17.0408 13.8158 17.1997 13.9331 17.3169C14.0503 17.4342 14.2092 17.5 14.375 17.5H15.6213C15.7032 17.5 15.7843 17.4839 15.8599 17.4525C15.9356 17.4212 16.0044 17.3752 16.0623 17.3173C16.1202 17.2594 16.1662 17.1906 16.1975 17.1149C16.2289 17.0393 16.245 16.9582 16.245 16.8763C16.245 16.2313 16.4175 15.9725 16.9325 15.7362L17.3637 15.5425C19.17 14.725 20.525 13.65 20.525 11.305V11.1763C20.525 8.70375 18.375 6.875 15.32 6.875C12.2225 6.875 9.9 8.66 9.9 11.5425ZM13.125 21.2387C13.125 22.3225 13.9488 23.125 14.9888 23.125C16.0513 23.125 16.875 22.3225 16.875 21.2387C16.875 20.155 16.0513 19.375 14.9888 19.375C13.9488 19.375 13.125 20.155 13.125 21.2387Z" fill="white"/>
</svg>
