<svg width="20" height="20" viewBox="0 0 20 20" fill="none" xmlns="http://www.w3.org/2000/svg">
<path fill-rule="evenodd" clip-rule="evenodd" d="M2.91602 7.97297V12.027C2.91602 13.9382 2.91602 14.8937 3.51736 15.4874C4.06367 16.0267 4.9125 16.0761 6.51473 16.0807C6.43007 15.5187 6.41237 14.8473 6.40792 14.0574C6.40603 13.7216 6.68026 13.4478 7.02042 13.4459C7.36058 13.4441 7.63788 13.7148 7.63977 14.0507C7.64477 14.9372 7.66809 15.5657 7.75683 16.0427C7.84233 16.5022 7.97963 16.7683 8.17957 16.9657C8.40685 17.1901 8.72593 17.3364 9.3286 17.4163C9.94893 17.4987 10.7711 17.5 11.9499 17.5H12.7712C13.9499 17.5 14.7721 17.4987 15.3924 17.4163C15.9951 17.3364 16.3142 17.1901 16.5414 16.9657C16.7688 16.7413 16.9169 16.4262 16.9979 15.8312C17.0814 15.2188 17.0827 14.4071 17.0827 13.2432V6.75676C17.0827 5.59291 17.0814 4.78119 16.9979 4.16875C16.9169 3.57379 16.7688 3.25873 16.5414 3.03433C16.3142 2.80993 15.9951 2.66362 15.3924 2.58363C14.7721 2.50129 13.9499 2.5 12.7712 2.5H11.9499C10.7711 2.5 9.94893 2.50129 9.3286 2.58363C8.72593 2.66362 8.40685 2.80993 8.17957 3.03433C7.97963 3.23173 7.84233 3.49773 7.75683 3.95731C7.66809 4.43427 7.64477 5.06271 7.63977 5.94933C7.63788 6.28518 7.36058 6.55592 7.02042 6.55404C6.68026 6.55217 6.40603 6.27841 6.40792 5.94256C6.41237 5.15268 6.43007 4.48132 6.51473 3.91937C4.9125 3.92389 4.06367 3.97324 3.51736 4.51262C2.91602 5.10632 2.91602 6.06187 2.91602 7.97297ZM4.94422 10.43C4.70368 10.1925 4.70368 9.8075 4.94422 9.57L6.58672 7.94838C6.82725 7.7109 7.21724 7.7109 7.45777 7.94838C7.69832 8.18587 7.69832 8.57092 7.45777 8.80842L6.86675 9.39192H12.7709C13.1111 9.39192 13.3869 9.66417 13.3869 10C13.3869 10.3358 13.1111 10.6081 12.7709 10.6081H6.86675L7.45777 11.1916C7.69832 11.4291 7.69832 11.8142 7.45777 12.0516C7.21724 12.2891 6.82725 12.2891 6.58672 12.0516L4.94422 10.43Z" fill="#334391"/>
</svg>
