<svg width="30" height="30" viewBox="0 0 30 30" fill="none" xmlns="http://www.w3.org/2000/svg">
<g clip-path="url(#clip0_1792_3933)">
<path fill-rule="evenodd" clip-rule="evenodd" d="M19.7676 2.8265C13.3324 -2.79812 3.35398 0.384371 1.13886 8.72635C0.208689 12.2273 1.10607 13.853 1.10607 16.4806C1.10607 19.1815 0 23.0937 0 23.0937C0 23.5723 0.424842 24.0389 0.948063 23.9028C2.81884 23.4137 5.79419 22.4461 9.35239 23.4122C21.3179 26.656 28.9963 10.8918 19.7676 2.8265ZM29.1707 30C29.0932 30 29.0127 29.9895 28.9307 29.9686C19.471 27.5937 20.106 30.2617 14.8499 28.856C13.2594 28.4312 11.812 27.6655 10.5628 26.6725C20.109 27.842 28.0661 19.5254 26.6574 9.73132C28.0989 11.2313 29.1572 13.0887 29.6044 15.169C30.8775 21.0733 27.6457 20.0743 29.9756 29.0474C30.1128 29.5723 29.6477 30 29.1707 30Z" fill="white"/>
</g>
<defs>
<clipPath id="clip0_1792_3933">
<rect width="30" height="30" fill="white"/>
</clipPath>
</defs>
</svg>
