<svg width="88" height="30" viewBox="0 0 88 30" fill="none" xmlns="http://www.w3.org/2000/svg">
<path d="M68.4998 1.64282C67.5336 1.64282 66.6071 2.02662 65.9239 2.70979C65.2407 3.39296 64.8569 4.31953 64.8569 5.28568V15C64.8569 15.9661 65.2407 16.8927 65.9239 17.5759C66.6071 18.259 67.5336 18.6428 68.4998 18.6428C69.4659 18.6428 70.3925 18.259 71.0757 17.5759C71.7588 16.8927 72.1426 15.9661 72.1426 15V5.28568C72.1426 4.31953 71.7588 3.39296 71.0757 2.70979C70.3925 2.02662 69.4659 1.64282 68.4998 1.64282Z" stroke="white" stroke-width="3" stroke-linecap="round" stroke-linejoin="round"/>
<path d="M77 12.5713V14.9999C77 17.2542 76.1045 19.4162 74.5104 21.0103C72.9163 22.6043 70.7543 23.4999 68.5 23.4999C66.2457 23.4999 64.0837 22.6043 62.4896 21.0103C60.8955 19.4162 60 17.2542 60 14.9999V12.5713" stroke="white" stroke-width="3" stroke-linecap="round" stroke-linejoin="round"/>
<path d="M68.5 23.5V28.3571" stroke="white" stroke-width="3" stroke-linecap="round" stroke-linejoin="round"/>
<path d="M63.6431 28.3572H73.3574" stroke="white" stroke-width="3" stroke-linecap="round" stroke-linejoin="round"/>
</svg>
