<svg width="25" height="25" viewBox="0 0 25 25" fill="none" xmlns="http://www.w3.org/2000/svg">
<path d="M12.5 17.1875C15.0895 17.1875 17.1875 15.0895 17.1875 12.5V4.6875C17.1875 2.09805 15.0895 0 12.5 0C9.91055 0 7.8125 2.09805 7.8125 4.6875V12.5C7.8125 15.0895 9.91055 17.1875 12.5 17.1875Z" fill="white"/>
<path d="M20.3125 10.9375C19.4488 10.9375 18.75 11.6363 18.75 12.5C18.75 15.9516 15.9516 18.75 12.5 18.75C9.04844 18.75 6.25 15.9516 6.25 12.5C6.25 11.6363 5.55117 10.9375 4.6875 10.9375C3.82383 10.9375 3.125 11.6363 3.125 12.5C3.125 17.1434 6.50625 20.9883 10.9375 21.7348V23.4375C10.9375 24.3012 11.6363 25 12.5 25C13.3637 25 14.0625 24.3012 14.0625 23.4375V21.7348C18.4937 20.9883 21.875 17.1434 21.875 12.5C21.875 11.6363 21.1762 10.9375 20.3125 10.9375Z" fill="white"/>
</svg>
