<svg width="50" height="50" viewBox="0 0 50 50" fill="none" xmlns="http://www.w3.org/2000/svg">
<path d="M20.6508 27.9004C24.0197 27.9004 26.7508 24.8783 26.7508 21.1504C26.7508 17.4225 24.0197 14.4004 20.6508 14.4004C17.2818 14.4004 14.5508 17.4225 14.5508 21.1504C14.5508 24.8783 17.2818 27.9004 20.6508 27.9004Z" fill="white"/>
<path d="M26.3 28.7004C24.75 30.1004 22.8 30.9504 20.65 30.9504C18.5 30.9504 16.5 30.1004 15 28.6504C12.25 29.9004 9.5 31.5004 9.5 34.0004V35.0504C9.5 36.3004 10.5 37.3004 11.75 37.3004H29.6C30.85 37.3004 31.85 36.3004 31.85 35.0504V34.0004C31.8 31.5004 29.1 29.9504 26.3 28.7004Z" fill="white"/>
<path d="M34.0004 23.7002C33.9004 23.6502 33.8504 23.6002 33.7504 23.5502C33.5504 23.4502 33.3004 23.4502 33.1004 23.6002C32.0504 24.2502 30.8004 24.6502 29.5004 24.6502C29.3504 24.6502 29.1504 24.6502 29.0004 24.6502C28.7504 25.3002 28.5004 25.9502 28.1504 26.5002C28.3504 26.6002 28.6004 26.6502 28.8504 26.8002C31.7004 28.0502 33.7004 29.6002 35.1004 31.7002H37.5004C38.6004 31.7002 39.5004 30.8002 39.5004 29.7002V28.7502C39.5004 26.3002 36.6504 24.8002 34.0004 23.7002Z" fill="white"/>
<path d="M33.4492 17.1004C33.4492 14.6504 31.6492 12.6504 29.4992 12.6504C28.3992 12.6504 27.4492 13.1504 26.6992 13.9004C28.4492 15.7004 29.5492 18.2504 29.5492 21.1004C29.5492 21.2504 29.5492 21.3504 29.5492 21.5004C31.6992 21.5004 33.4492 19.5504 33.4492 17.1004Z" fill="white"/>
</svg>
