<svg width="18" height="18" viewBox="0 0 18 18" fill="none" xmlns="http://www.w3.org/2000/svg">
<path fill-rule="evenodd" clip-rule="evenodd" d="M15.622 8.03655L15.2337 9.48547C14.7805 11.1768 14.5539 12.0224 14.0402 12.5709C13.6346 13.0039 13.1097 13.307 12.5319 13.4417C12.4597 13.4586 12.3864 13.4716 12.3112 13.4808C11.6249 13.5655 10.7875 13.3411 9.2631 12.9326C7.57177 12.4794 6.72611 12.2528 6.17765 11.7391C5.74459 11.3335 5.44153 10.8086 5.3068 10.2307C5.13616 9.4989 5.36275 8.65327 5.81593 6.96197L6.20416 5.51308C6.26932 5.2699 6.32984 5.04405 6.38716 4.83421C6.72846 3.58468 6.95782 2.89723 7.39763 2.42765C7.80322 1.99459 8.32815 1.69153 8.90602 1.5568C9.6378 1.38616 10.4835 1.61275 12.1748 2.06593C13.8661 2.51912 14.7118 2.74571 15.2602 3.2594C15.6933 3.66501 15.9964 4.18993 16.1311 4.76777C16.3017 5.4996 16.0751 6.34525 15.622 8.03655ZM8.2893 7.35442C8.3697 7.05434 8.67817 6.87626 8.97825 6.95667L12.6004 7.92727C12.9005 8.00767 13.0786 8.31607 12.9982 8.61615C12.9178 8.91622 12.6094 9.09427 12.3093 9.01387L8.68702 8.0433C8.38695 7.9629 8.2089 7.6545 8.2893 7.35442ZM7.7067 9.52747C7.7871 9.2274 8.0955 9.04935 8.39557 9.12975L10.5689 9.71212C10.869 9.79252 11.047 10.1009 10.9666 10.401C10.8862 10.7011 10.5778 10.8792 10.2778 10.7988L8.10442 10.2164C7.80435 10.136 7.62622 9.82755 7.7067 9.52747Z" fill="#2D5497"/>
<path opacity="0.5" d="M12.3112 13.4809C12.1548 13.9596 11.8798 14.3927 11.5102 14.7389C10.9618 15.2526 10.1161 15.4792 8.42482 15.9324C6.73348 16.3855 5.88783 16.6122 5.15599 16.4415C4.57816 16.3068 4.05324 16.0037 3.64763 15.5707C3.13394 15.0222 2.90735 14.1766 2.45416 12.4852L2.06593 11.0364C1.61275 9.34507 1.38616 8.49937 1.5568 7.7676C1.69153 7.18973 1.99459 6.66481 2.42765 6.2592C2.97611 5.74551 3.82177 5.51892 5.51308 5.06573C5.83305 4.98 6.12277 4.90237 6.38716 4.83401C6.38718 4.83393 6.38713 4.83409 6.38716 4.83401C6.32984 5.04385 6.26932 5.26993 6.20416 5.51311L5.81593 6.96199C5.36275 8.65327 5.13616 9.49897 5.3068 10.2308C5.44153 10.8086 5.74459 11.3335 6.17765 11.7391C6.72611 12.2528 7.57177 12.4795 9.2631 12.9326C10.7875 13.3411 11.6249 13.5655 12.3112 13.4809Z" fill="#2D5497"/>
</svg>
