<svg width="30" height="30" viewBox="0 0 30 30" fill="none" xmlns="http://www.w3.org/2000/svg">
<path d="M2.5 7.5C2.5 5.14298 2.5 3.96446 3.23224 3.23224C3.96446 2.5 5.14298 2.5 7.5 2.5C9.85702 2.5 11.0355 2.5 11.7678 3.23224C12.5 3.96446 12.5 5.14298 12.5 7.5V22.5C12.5 24.857 12.5 26.0355 11.7678 26.7677C11.0355 27.5 9.85702 27.5 7.5 27.5C5.14298 27.5 3.96446 27.5 3.23224 26.7677C2.5 26.0355 2.5 24.857 2.5 22.5V7.5Z" fill="#2D5497"/>
<path opacity="0.5" d="M17.5 7.5C17.5 5.14298 17.5 3.96446 18.2323 3.23224C18.9645 2.5 20.143 2.5 22.5 2.5C24.857 2.5 26.0355 2.5 26.7677 3.23224C27.5 3.96446 27.5 5.14298 27.5 7.5V22.5C27.5 24.857 27.5 26.0355 26.7677 26.7677C26.0355 27.5 24.857 27.5 22.5 27.5C20.143 27.5 18.9645 27.5 18.2323 26.7677C17.5 26.0355 17.5 24.857 17.5 22.5V7.5Z" fill="#2D5497"/>
</svg>
