<svg width="23" height="23" viewBox="0 0 23 23" fill="none" xmlns="http://www.w3.org/2000/svg">
<path d="M3.83398 3.83333C3.83398 3.30406 4.26305 2.875 4.79232 2.875H13.4173H13.9787C14.2329 2.875 14.4767 2.97597 14.6563 3.15569L18.8866 7.38598C19.0663 7.5657 19.1673 7.80946 19.1673 8.06362V19.1667C19.1673 19.696 18.7383 20.125 18.209 20.125H4.79232C4.26305 20.125 3.83398 19.696 3.83398 19.1667V3.83333Z" stroke="#BC0000" stroke-width="2" stroke-linecap="round"/>
<path d="M19.1667 7.66667H14.375V2.875" stroke="#BC0000" stroke-width="2" stroke-linecap="round" stroke-linejoin="round"/>
<path d="M11.0202 12.458H10.541V16.2913H11.0202C12.0788 16.2913 12.9368 15.4332 12.9368 14.3747C12.9368 13.3161 12.0788 12.458 11.0202 12.458Z" stroke="#BC0000" stroke-width="1.5" stroke-linecap="round" stroke-linejoin="round"/>
<path d="M14.8535 16.2913V12.458H16.7702" stroke="#BC0000" stroke-width="1.5" stroke-linecap="round" stroke-linejoin="round"/>
<path d="M15.334 14.375H16.2923" stroke="#BC0000" stroke-width="1.5" stroke-linecap="round" stroke-linejoin="round"/>
<path d="M6.70898 16.2913V14.8538M6.70898 14.8538V12.458H7.42773C8.08933 12.458 8.62565 12.9943 8.62565 13.6559C8.62565 14.3176 8.08933 14.8538 7.42773 14.8538H6.70898Z" stroke="#BC0000" stroke-width="1.5" stroke-linecap="round" stroke-linejoin="round"/>
</svg>
