<svg width="30" height="30" viewBox="0 0 30 30" fill="none" xmlns="http://www.w3.org/2000/svg">
<path fill-rule="evenodd" clip-rule="evenodd" d="M23.4 19.6669C23.4 21.7287 21.7286 23.4001 19.6668 23.4001H10.3332C8.27138 23.4001 6.59998 21.7287 6.59998 19.6669V10.3333C6.59998 8.27151 8.27138 6.6001 10.3332 6.6001H19.6668C21.7286 6.6001 23.4 8.27151 23.4 10.3333V19.6669Z" stroke="#2D5497" stroke-width="1.5" stroke-linecap="round" stroke-linejoin="round"/>
<path fill-rule="evenodd" clip-rule="evenodd" d="M14.7024 13.0715C15.1688 12.3356 15.0791 11.3775 14.484 10.7411C13.9032 10.12 12.9533 10.0222 12.258 10.5119C11.9652 10.7184 11.7395 11.0063 11.6088 11.3399C11.4751 11.6789 11.4401 12.0488 11.508 12.4067C11.5736 12.7615 11.7403 13.0899 11.988 13.3523C12.2306 13.6083 12.5454 13.7845 12.8904 13.8575C13.2327 13.9285 13.5887 13.8917 13.9092 13.7519C14.2356 13.6095 14.5118 13.3725 14.7024 13.0715Z" stroke="#2D5497" stroke-width="1.5" stroke-linecap="round" stroke-linejoin="round"/>
<path fill-rule="evenodd" clip-rule="evenodd" d="M15.2976 18.9793C14.8312 18.2434 14.9209 17.2852 15.516 16.6489C16.0968 16.0277 17.0467 15.9298 17.742 16.4197C18.0348 16.6262 18.2605 16.9141 18.3912 17.2477C18.5249 17.5865 18.5598 17.9565 18.492 18.3145C18.4264 18.6693 18.2597 18.9976 18.012 19.2601C17.7694 19.516 17.4546 19.6922 17.1096 19.7653C16.7672 19.8363 16.4113 19.7995 16.0908 19.6597C15.7644 19.5172 15.4882 19.2802 15.2976 18.9793Z" stroke="#2D5497" stroke-width="1.5" stroke-linecap="round" stroke-linejoin="round"/>
<path d="M15 11.1455C14.503 11.1455 14.1 11.5485 14.1 12.0455C14.1 12.5426 14.503 12.9455 15 12.9455V11.1455ZM19.8 12.9455C20.2971 12.9455 20.7 12.5426 20.7 12.0455C20.7 11.5485 20.2971 11.1455 19.8 11.1455V12.9455ZM11.4732 12.9455C11.9703 12.9455 12.3732 12.5426 12.3732 12.0455C12.3732 11.5485 11.9703 11.1455 11.4732 11.1455V12.9455ZM10.2 11.1455C9.703 11.1455 9.30005 11.5485 9.30005 12.0455C9.30005 12.5426 9.703 12.9455 10.2 12.9455V11.1455ZM15 18.8543C15.4971 18.8543 15.9 18.4513 15.9 17.9543C15.9 17.4572 15.4971 17.0543 15 17.0543V18.8543ZM10.2 17.0543C9.703 17.0543 9.30005 17.4572 9.30005 17.9543C9.30005 18.4513 9.703 18.8543 10.2 18.8543V17.0543ZM18.5268 17.0543C18.0298 17.0543 17.6268 17.4572 17.6268 17.9543C17.6268 18.4513 18.0298 18.8543 18.5268 18.8543V17.0543ZM19.8 18.8543C20.2971 18.8543 20.7 18.4513 20.7 17.9543C20.7 17.4572 20.2971 17.0543 19.8 17.0543V18.8543ZM15 12.9455H19.8V11.1455H15V12.9455ZM11.4732 11.1455H10.2V12.9455H11.4732V11.1455ZM15 17.0543H10.2V18.8543H15V17.0543ZM18.5268 18.8543H19.8V17.0543H18.5268V18.8543Z" fill="#2D5497"/>
</svg>
