<svg width="30" height="30" viewBox="0 0 30 30" fill="none" xmlns="http://www.w3.org/2000/svg">
<path opacity="0.5" d="M27.5 15C27.5 21.9035 21.9035 27.5 15 27.5C8.09644 27.5 2.5 21.9035 2.5 15C2.5 8.09644 8.09644 2.5 15 2.5C21.9035 2.5 27.5 8.09644 27.5 15Z" fill="#2D5497"/>
<path d="M10.7322 10.7322C10 11.4645 10 12.643 10 15C10 17.357 10 18.5355 10.7322 19.2677C11.4645 20 12.643 20 15 20C17.357 20 18.5355 20 19.2677 19.2677C20 18.5355 20 17.357 20 15C20 12.643 20 11.4645 19.2677 10.7322C18.5355 10 17.357 10 15 10C12.643 10 11.4645 10 10.7322 10.7322Z" fill="#2D5497"/>
</svg>
