<svg width="88" height="27" viewBox="0 0 88 27" fill="none" xmlns="http://www.w3.org/2000/svg">
<path d="M77.0455 23.4547V21.1819C77.0455 19.9764 76.5666 18.8202 75.7141 17.9678C74.8617 17.1154 73.7055 16.6365 72.5 16.6365H64.5455C63.3399 16.6365 62.1838 17.1154 61.3313 17.9678C60.4789 18.8202 60 19.9764 60 21.1819V23.4547" stroke="white" stroke-width="3" stroke-linecap="round" stroke-linejoin="round"/>
<path d="M68.5227 12.0909C71.0331 12.0909 73.0682 10.0558 73.0682 7.54545C73.0682 5.03507 71.0331 3 68.5227 3C66.0124 3 63.9773 5.03507 63.9773 7.54545C63.9773 10.0558 66.0124 12.0909 68.5227 12.0909Z" stroke="white" stroke-width="3" stroke-linecap="round" stroke-linejoin="round"/>
<path d="M81.5909 8.68188V15.5001" stroke="white" stroke-width="3" stroke-linecap="round" stroke-linejoin="round"/>
<path d="M84.9999 12.0908H78.1818" stroke="white" stroke-width="3" stroke-linecap="round" stroke-linejoin="round"/>
</svg>
