<svg width="14" height="15" viewBox="0 0 14 15" fill="none" xmlns="http://www.w3.org/2000/svg">
<path fill-rule="evenodd" clip-rule="evenodd" d="M10.4732 1.14307C10.3353 0.922708 10.1321 0.750826 9.89195 0.651351C9.65178 0.551875 9.38657 0.529755 9.13323 0.588071L7.33523 1.00107C7.15096 1.04342 6.95949 1.04342 6.77523 1.00107L4.97723 0.588071C4.72389 0.529755 4.45868 0.551875 4.2185 0.651351C3.97833 0.750826 3.77514 0.922708 3.63723 1.14307L2.65723 2.70707C2.55723 2.86707 2.42223 3.00207 2.26223 3.10307L0.698229 4.08307C0.478247 4.22086 0.306617 4.42372 0.207162 4.66348C0.107708 4.90325 0.0853631 5.16803 0.143229 5.42107L0.556229 7.22107C0.598427 7.40501 0.598427 7.59613 0.556229 7.78007L0.143229 9.57907C0.0851382 9.83226 0.107371 10.0973 0.206836 10.3372C0.306301 10.5772 0.478057 10.7802 0.698229 10.9181L2.26223 11.8981C2.42223 11.9981 2.55723 12.1331 2.65823 12.2931L3.63823 13.8571C3.92023 14.3081 4.45823 14.5311 4.97723 14.4121L6.77523 13.9991C6.95949 13.9567 7.15096 13.9567 7.33523 13.9991L9.13423 14.4121C9.38742 14.4702 9.65242 14.4479 9.89239 14.3485C10.1324 14.249 10.3354 14.0772 10.4732 13.8571L11.4532 12.2931C11.5532 12.1331 11.6882 11.9981 11.8482 11.8981L13.4132 10.9181C13.6334 10.78 13.8051 10.5768 13.9044 10.3366C14.0037 10.0964 14.0256 9.8313 13.9672 9.57807L13.5552 7.78007C13.5129 7.59581 13.5129 7.40434 13.5552 7.22007L13.9682 5.42107C14.0264 5.16799 14.0043 4.90306 13.9051 4.6631C13.8058 4.42314 13.6342 4.22006 13.4142 4.08207L11.8492 3.10207C11.6895 3.00189 11.5544 2.86685 11.4542 2.70707L10.4732 1.14307ZM9.97023 5.27007C10.0321 5.15634 10.0474 5.02305 10.013 4.89824C9.97855 4.77344 9.89706 4.66685 9.78565 4.60091C9.67424 4.53497 9.54159 4.51482 9.41562 4.54469C9.28965 4.57456 9.18017 4.65213 9.11023 4.76107L6.49523 9.18707L4.91623 7.67507C4.86939 7.62697 4.81333 7.5888 4.75142 7.56283C4.6895 7.53687 4.62299 7.52363 4.55585 7.52393C4.48871 7.52422 4.42232 7.53803 4.36064 7.56454C4.29895 7.59104 4.24323 7.6297 4.19681 7.67821C4.15039 7.72671 4.11421 7.78407 4.09043 7.84686C4.06666 7.90965 4.05577 7.97658 4.05842 8.04367C4.06108 8.11076 4.07721 8.17663 4.10587 8.23734C4.13453 8.29806 4.17512 8.35238 4.22523 8.39707L6.25923 10.3461C6.31367 10.3981 6.37916 10.4372 6.45082 10.4604C6.52248 10.4836 6.59846 10.4903 6.67307 10.48C6.74769 10.4697 6.81901 10.4427 6.88172 10.401C6.94443 10.3593 6.99691 10.3039 7.03523 10.2391L9.97023 5.27007Z" fill="#46A52C"/>
</svg>
