<svg width="26" height="26" viewBox="0 0 26 26" fill="none" xmlns="http://www.w3.org/2000/svg">
<g clip-path="url(#clip0_1736_5642)">
<path d="M13 0C5.82029 0 0 5.82029 0 13C0 20.1797 5.82029 26 13 26C20.1797 26 26 20.1797 26 13C26 5.82029 20.1797 0 13 0ZM21.2405 7.41406H18.8707C18.5983 6.27082 18.2449 5.21965 17.8253 4.2903C18.6269 4.73596 19.3715 5.29562 20.0379 5.96207C20.4884 6.4125 20.8897 6.89884 21.2405 7.41406ZM22.9531 13C22.9531 13.8688 22.8419 14.7203 22.6274 15.5391H19.3757C19.457 14.7178 19.5 13.869 19.5 13C19.5 12.131 19.457 11.2822 19.3757 10.4609H22.6274C22.8419 11.2797 22.9531 12.1312 22.9531 13ZM13 22.9531C12.7359 22.9531 11.9312 22.4341 11.129 20.8298C10.7968 20.1652 10.5116 19.4082 10.2783 18.5859H15.7216C15.4883 19.4082 15.2032 20.1652 14.8709 20.8298C14.0688 22.4341 13.2641 22.9531 13 22.9531ZM9.68972 15.5391C9.59593 14.714 9.54688 13.8618 9.54688 13C9.54688 12.1382 9.59593 11.286 9.68972 10.4609H16.3103C16.4041 11.286 16.4531 12.1382 16.4531 13C16.4531 13.8618 16.4041 14.714 16.3103 15.5391H9.68972ZM3.04688 13C3.04688 12.1312 3.15814 11.2797 3.37259 10.4609H6.62431C6.54301 11.2822 6.5 12.131 6.5 13C6.5 13.869 6.54301 14.7178 6.62431 15.5391H3.37259C3.15814 14.7203 3.04688 13.8688 3.04688 13ZM13 3.04688C13.2641 3.04688 14.0688 3.56591 14.871 5.17019C15.2032 5.83477 15.4884 6.59176 15.7217 7.41406H10.2783C10.5116 6.59181 10.7967 5.83477 11.129 5.17019C11.9312 3.56591 12.7359 3.04688 13 3.04688ZM8.17472 4.2903C7.75506 5.21965 7.40172 6.27077 7.12928 7.41406H4.75947C5.11032 6.89884 5.51164 6.4125 5.96207 5.96207C6.62853 5.29562 7.37308 4.73596 8.17472 4.2903ZM4.75947 18.5859H7.12928C7.40172 19.7292 7.75511 20.7803 8.17472 21.7097C7.37308 21.264 6.62848 20.7044 5.96207 20.0379C5.51164 19.5875 5.11027 19.1012 4.75947 18.5859ZM17.8253 21.7097C18.2449 20.7803 18.5983 19.7292 18.8707 18.5859H21.2405C20.8897 19.1012 20.4884 19.5875 20.0379 20.0379C19.3715 20.7044 18.6269 21.264 17.8253 21.7097Z" fill="#334391"/>
</g>
<defs>
<clipPath id="clip0_1736_5642">
<rect width="26" height="26" fill="white"/>
</clipPath>
</defs>
</svg>
